
<?xml version="1.0" encoding="UTF-8"?>
<svg id="Layer_2" data-name="Layer 2" xmlns="http://www.w3.org/2000/svg" viewBox="0 0 1272.02 202">
  <defs>
    <style>
      .cls-1 {
        fill: #29ABE2;
      }

      .cls-2 {
        fill: #111048;
      }
    </style>
  </defs>
  <g id="Layer_1-2" data-name="Layer 1">
    <g>
      <g>
        <path class="cls-2" d="M395,162.34c-26.17,0-38.68-11.35-38.68-35.21v-56.04h-18.99v-23.62h13.2c3.47,0,5.79-2.32,5.79-6.49v-22.23h25.7v28.72h30.57v23.62h-30.57v53.5c0,9.03,4.39,13.67,14.82,13.67h15.75v24.08h-17.59Z"/>
        <path class="cls-2" d="M420.52,104.9c0-33.58,25.02-59.75,57.91-59.75,16.2,0,29.87,6.49,38.43,17.6v-15.28h24.55v114.87h-24.55v-15.28c-8.33,11.12-22.23,17.6-38.43,17.6-32.89,0-57.91-26.17-57.91-59.76ZM515.93,104.9c0-20.61-14.6-35.66-34.74-35.66s-34.96,15.05-34.96,35.66,14.82,35.44,34.96,35.44,34.74-14.82,34.74-35.44Z"/>
        <path class="cls-2" d="M558.38,104.9c0-33.58,26.17-59.75,59.99-59.75,29.64,0,53.27,20.38,58.14,48.41h-26.4c-4.41-14.36-15.99-24.32-31.74-24.32-19.44,0-34.26,15.52-34.26,35.66s14.82,35.67,34.26,35.67c15.75,0,27.32-10.19,31.74-24.32h26.4c-4.64,27.8-28.49,48.41-58.14,48.41-33.81,0-59.99-26.17-59.99-59.76Z"/>
        <path class="cls-2" d="M740.96,162.34c-26.17,0-38.68-11.35-38.68-35.21v-56.04h-18.99v-23.62h13.2c3.47,0,5.79-2.32,5.79-6.49v-22.23h25.7v28.72h30.57v23.62h-30.57v53.5c0,9.03,4.39,13.67,14.82,13.67h15.75v24.08h-17.59Z"/>
        <path class="cls-2" d="M766.45,104.9c0-33.58,26.65-59.75,60.68-59.75s60.44,26.17,60.44,59.75-26.63,59.76-60.44,59.76-60.68-26.17-60.68-59.76ZM861.87,104.9c0-20.61-14.58-35.66-34.74-35.66s-34.96,15.05-34.96,35.66,14.82,35.67,34.96,35.67,34.74-15.05,34.74-35.67Z"/>
        <path class="cls-2" d="M904.79,162.34V47.47h24.55v11.35c7.41-8.81,18.99-13.67,32.66-13.67,16.44,0,29.64,6.72,37.28,19.69,8.81-12.28,23.63-19.69,40.75-19.69,28.27,0,47.95,19.92,47.95,51.19v66h-25.72v-63.69c0-18.29-9.96-29.18-26.4-29.18s-26.63,11.35-26.63,29.18v63.69h-25.7v-63.69c0-18.29-9.96-29.18-26.17-29.18s-26.87,11.35-26.87,29.18v63.69h-25.7Z"/>
        <path class="cls-2" d="M1109.64,14.82c0-8.57,6.26-14.82,14.82-14.82s14.82,6.25,14.82,14.82-6.26,14.59-14.82,14.59-14.82-6.25-14.82-14.59ZM1111.49,162.34V47.47h25.7v114.87h-25.7Z"/>
        <path class="cls-2" d="M1153.9,104.9c0-33.58,26.17-59.75,59.99-59.75,29.64,0,53.27,20.38,58.14,48.41h-26.4c-4.41-14.36-15.99-24.32-31.74-24.32-19.44,0-34.26,15.52-34.26,35.66s14.82,35.67,34.26,35.67c15.75,0,27.32-10.19,31.74-24.32h26.4c-4.64,27.8-28.49,48.41-58.14,48.41-33.81,0-59.99-26.17-59.99-59.76Z"/>
      </g>
      <path class="cls-1" d="M227.14,30.62l53.76,54.02-123.53,.86c-1.92.01-3.46,1.57-3.46,3.48v113.01l-52.45-53.79c-.63-.65-.99-1.52-.99-2.43v-67.35c0-1.91,1.54-3.47,3.46-3.48l46.53-.36c1.91-.01,3.46-1.57,3.46-3.48v-11.6c0-1.93-1.58-3.5-3.51-3.48l-94.3.85c-.94,0-1.84-.36-2.5-1.03L0,1.87l150.41-.87c1.93,0,3.5,1.55,3.5,3.48v22.51c0,1.94,1.58,3.5,3.52,3.48l67.2-.88c.94,0,1.84.36,2.5,1.03Z"/>
    </g>
  </g>
</svg>
