
<?xml version="1.0" encoding="UTF-8"?>
<svg id="Layer_1" data-name="Layer 1" xmlns="http://www.w3.org/2000/svg" viewBox="0 0 1300 900">
  <defs>
    <style>
      .cls-1 {
        fill: #29ABE2;
      }

      .cls-2 {
        fill: #111048;
      }
    </style>
  </defs>
  <g>
    <path class="cls-2" d="M572.26,469.79c-8.44,0-12.48-3.66-12.48-11.36v-18.08h-6.13v-7.62h4.26c1.12,0,1.87-.75,1.87-2.09v-7.17h8.29v9.26h9.86v7.62h-9.86v17.26c0,2.91,1.42,4.41,4.78,4.41h5.08v7.77h-5.68Z"/>
    <path class="cls-2" d="M580.49,451.26c0-10.83,8.07-19.27,18.68-19.27,5.23,0,9.64,2.09,12.4,5.68v-4.93h7.92v37.05h-7.92v-4.93c-2.69,3.59-7.17,5.68-12.4,5.68-10.61,0-18.68-8.44-18.68-19.28ZM611.27,451.26c0-6.65-4.71-11.5-11.2-11.5s-11.28,4.85-11.28,11.5,4.78,11.43,11.28,11.43,11.2-4.78,11.2-11.43Z"/>
    <path class="cls-2" d="M624.96,451.26c0-10.83,8.44-19.27,19.35-19.27,9.56,0,17.18,6.58,18.75,15.62h-8.52c-1.42-4.63-5.16-7.84-10.24-7.84-6.27,0-11.05,5.01-11.05,11.5s4.78,11.51,11.05,11.51c5.08,0,8.81-3.29,10.24-7.84h8.52c-1.5,8.97-9.19,15.62-18.75,15.62-10.91,0-19.35-8.44-19.35-19.28Z"/>
    <path class="cls-2" d="M683.85,469.79c-8.44,0-12.48-3.66-12.48-11.36v-18.08h-6.13v-7.62h4.26c1.12,0,1.87-.75,1.87-2.09v-7.17h8.29v9.26h9.86v7.62h-9.86v17.26c0,2.91,1.42,4.41,4.78,4.41h5.08v7.77h-5.68Z"/>
    <path class="cls-2" d="M692.08,451.26c0-10.83,8.6-19.27,19.58-19.27s19.5,8.44,19.5,19.27-8.59,19.28-19.5,19.28-19.58-8.44-19.58-19.28ZM722.86,451.26c0-6.65-4.7-11.5-11.2-11.5s-11.28,4.85-11.28,11.5,4.78,11.51,11.28,11.51,11.2-4.85,11.2-11.51Z"/>
    <path class="cls-2" d="M736.7,469.79v-37.05h7.92v3.66c2.39-2.84,6.13-4.41,10.54-4.41,5.3,0,9.56,2.17,12.03,6.35,2.84-3.96,7.62-6.35,13.15-6.35,9.12,0,15.47,6.43,15.47,16.51v21.29h-8.3v-20.55c0-5.9-3.21-9.41-8.52-9.41s-8.59,3.66-8.59,9.41v20.55h-8.29v-20.55c0-5.9-3.21-9.41-8.44-9.41s-8.67,3.66-8.67,9.41v20.55h-8.29Z"/>
    <path class="cls-2" d="M802.78,422.2c0-2.76,2.02-4.78,4.78-4.78s4.78,2.02,4.78,4.78-2.02,4.71-4.78,4.71-4.78-2.02-4.78-4.71ZM803.38,469.79v-37.05h8.29v37.05h-8.29Z"/>
    <path class="cls-2" d="M817.06,451.26c0-10.83,8.44-19.27,19.35-19.27,9.56,0,17.18,6.58,18.75,15.62h-8.52c-1.42-4.63-5.16-7.84-10.24-7.84-6.27,0-11.05,5.01-11.05,11.5s4.78,11.51,11.05,11.51c5.08,0,8.81-3.29,10.24-7.84h8.52c-1.5,8.97-9.19,15.62-18.75,15.62-10.91,0-19.35-8.44-19.35-19.28Z"/>
  </g>
  <path class="cls-1" d="M518.11,427.3l17.34,17.43-39.85.28c-.62,0-1.12.51-1.12,1.12v36.45l-16.92-17.35c-.2-.21-.32-.49-.32-.78v-21.73c0-.62.5-1.12,1.12-1.12l15.01-.12c.62,0,1.12-.51,1.12-1.12v-3.74c0-.62-.51-1.13-1.13-1.12l-30.42.28c-.3,0-.59-.12-.81-.33l-17.29-17.41,48.52-.28c.62,0,1.13.5,1.13,1.12v7.26c0,.63.51,1.13,1.14,1.12l21.68-.28c.3,0,.59.12.81.33Z"/>
</svg>
