<svg width="842" height="842" viewBox="0 0 842 842" fill="none" xmlns="http://www.w3.org/2000/svg">
<g clip-path="url(#clip0_7269_35279)">
<path d="M403.813 322.835H403.621L393.379 338.456H384.746L399.271 316.567L385.638 295.703H394.596L403.871 310.365H404.004L413.346 295.703H422.046L408.421 316.375L422.946 338.456H413.921L403.813 322.835Z" fill="#2C3C4C"/>
<path d="M448.612 328.221L455.137 330.329C453.412 336.598 448.037 339.223 442.087 339.223C432.812 339.223 426.921 333.205 426.921 322.586C426.921 311.966 432.804 305.498 442.146 305.498C450.912 305.498 455.454 311.641 455.454 319.443C455.454 321.11 455.129 322.836 454.812 323.736H434.462C434.654 329.688 437.471 333.205 442.137 333.205C445.404 333.205 447.704 331.73 448.595 328.221M447.896 319.385C447.962 318.877 447.962 318.235 447.962 317.793C447.962 314.2 445.912 311.2 442.012 311.2C437.787 311.2 435.104 314.275 434.587 319.393H447.896V319.385Z" fill="#2C3C4C"/>
<path d="M482.079 313.817C481.312 313.567 479.962 313.376 478.82 313.376C474.337 313.376 470.887 316.635 470.887 322.911V338.465H463.02V306.274H469.67L470.57 314.084C471.912 308.449 476.454 304.607 482.537 305.765L482.087 313.826L482.079 313.817Z" fill="#2C3C4C"/>
<path d="M501.92 339.223C492.837 339.223 486.629 333.147 486.629 322.336C486.629 311.525 492.837 305.498 501.92 305.498C511.003 305.498 517.212 311.575 517.212 322.336C517.212 333.097 511.07 339.223 501.92 339.223ZM501.92 311.383C496.995 311.383 494.562 315.226 494.562 322.327C494.562 329.429 496.995 333.33 501.92 333.33C506.845 333.33 509.345 329.488 509.345 322.327C509.345 315.167 506.845 311.383 501.92 311.383Z" fill="#2C3C4C"/>
<path d="M564.444 330.646C564.444 332.505 565.336 333.146 566.686 333.146C567.386 333.146 568.094 332.888 568.544 332.505L568.861 337.881C567.711 338.648 565.919 339.098 564.253 339.098C561.561 339.098 559.52 338.073 558.303 336.214C557.92 335.514 557.603 334.738 557.345 333.847C556.07 337.239 552.228 339.098 548.07 339.098C542.186 339.098 537.961 335.764 537.961 329.946C537.961 323.544 543.336 319.71 553.378 319.71C554.336 319.71 555.745 319.768 556.903 319.901V316.317C556.903 313.241 555.236 311.391 551.911 311.391C548.586 311.391 546.92 313.308 546.861 316.442L539.436 315.292C540.078 309.082 545.136 305.506 552.295 305.506C560.294 305.506 564.453 309.09 564.453 315.875V330.654L564.444 330.646ZM556.895 324.436C556.186 324.369 555.228 324.244 554.27 324.244C548.636 324.244 545.628 325.911 545.628 329.429C545.628 331.996 547.42 333.722 550.495 333.722C553.57 333.722 556.895 331.738 556.895 326.678V324.436Z" fill="#2C3C4C"/>
<path d="M596.061 332.438C594.586 337.114 590.553 339.223 586.011 339.223C578.844 339.223 572.961 333.588 572.961 322.969C572.961 312.349 578.336 305.498 586.528 305.498C591.394 305.498 594.528 307.807 595.677 310.482V292.244H603.544V338.456H596.886L596.052 332.438H596.061ZM595.677 319.326C595.677 313.758 591.903 311.457 588.636 311.457C584.153 311.457 581.019 314.975 581.019 322.719C581.019 329.429 583.894 333.021 588.503 333.021C592.086 333.021 595.669 330.396 595.669 324.194V319.326H595.677Z" fill="#2C3C4C"/>
<path d="M625.761 329.945L633.627 306.264H641.244L629.469 338.455H621.602L609.761 306.264H618.077L625.627 329.945H625.761Z" fill="#2C3C4C"/>
<path d="M651.427 301.588C648.735 301.588 646.502 299.729 646.502 296.854C646.502 293.978 648.744 292.119 651.427 292.119C654.11 292.119 656.419 293.978 656.419 296.854C656.419 299.729 654.11 301.588 651.427 301.588ZM655.394 338.456H647.527V306.264H655.394V338.456Z" fill="#2C3C4C"/>
<path d="M669.027 328.729C669.468 331.738 672.16 333.789 675.618 333.789C679.077 333.789 681.252 332.438 681.252 329.754C681.252 322.652 663.402 328.287 663.402 315.734C663.402 309.207 668.902 305.498 675.877 305.498C683.235 305.498 687.585 308.757 688.352 314.65L681.51 315.484C681.252 312.733 679.402 310.874 675.943 310.874C672.743 310.874 670.827 312.408 670.827 315.034C670.827 322.077 688.743 316.117 688.743 329.054C688.743 335.648 683.177 339.223 675.56 339.223C668.71 339.223 663.335 336.148 662.185 330.396L669.035 328.729H669.027Z" fill="#2C3C4C"/>
<path d="M709.343 339.223C700.26 339.223 694.052 333.147 694.052 322.336C694.052 311.525 700.26 305.498 709.343 305.498C718.426 305.498 724.635 311.575 724.635 322.336C724.635 333.097 718.493 339.223 709.343 339.223ZM709.343 311.383C704.418 311.383 701.985 315.226 701.985 322.327C701.985 329.429 704.418 333.33 709.343 333.33C714.268 333.33 716.768 329.488 716.768 322.327C716.768 315.167 714.268 311.383 709.343 311.383Z" fill="#2C3C4C"/>
<path d="M751.384 313.817C750.618 313.567 749.268 313.376 748.126 313.376C743.643 313.376 740.193 316.635 740.193 322.911V338.465H732.326V306.274H738.976L739.876 314.084C741.218 308.449 745.759 304.607 751.843 305.765L751.393 313.826L751.384 313.817Z" fill="#2C3C4C"/>
<path d="M401.379 380.051C408.671 380.051 413.471 384.21 414.112 390.42L407.204 391.887C406.946 388.628 405.029 386.002 401.446 386.002C396.588 386.002 394.154 390.42 394.154 396.947C394.154 403.474 396.588 407.825 401.513 407.825C404.838 407.825 406.954 405.391 407.271 401.873L414.246 403.732C413.163 410 408.354 413.785 401.513 413.785C392.238 413.785 386.288 407.45 386.288 396.947C386.288 386.444 392.238 380.051 401.388 380.051" fill="#2C3C4C"/>
<path d="M440.929 402.773L447.454 404.891C445.729 411.159 440.354 413.785 434.404 413.785C425.129 413.785 419.237 407.766 419.237 397.139C419.237 386.511 425.121 380.051 434.462 380.051C443.229 380.051 447.771 386.202 447.771 394.004C447.771 395.663 447.446 397.397 447.129 398.289H426.779C426.971 404.24 429.787 407.766 434.454 407.766C437.721 407.766 440.021 406.291 440.912 402.773M440.212 393.946C440.279 393.429 440.279 392.796 440.279 392.346C440.279 388.761 438.229 385.752 434.329 385.752C430.104 385.752 427.421 388.828 426.904 393.946H440.212Z" fill="#2C3C4C"/>
<path d="M474.404 388.368C473.637 388.118 472.287 387.918 471.145 387.918C466.662 387.918 463.212 391.177 463.212 397.454V413.008H455.345V380.816H461.995L462.895 388.627C464.237 382.992 468.779 379.157 474.862 380.308L474.412 388.368H474.404Z" fill="#2C3C4C"/>
<path d="M500.253 411.474C498.203 412.95 495.395 413.783 492.578 413.783C486.179 413.783 482.02 410.708 482.02 403.922V386.701H477.67V380.816H482.02V373.973L489.953 372.939V380.816H498.97V386.701H489.953V402.964C489.953 406.031 491.553 407.315 494.045 407.315C495.962 407.315 497.37 406.798 499.162 405.656L500.253 411.474Z" fill="#2C3C4C"/>
<path d="M510.887 376.149C508.195 376.149 505.962 374.291 505.962 371.406C505.962 368.522 508.203 366.672 510.887 366.672C513.57 366.672 515.878 368.531 515.878 371.406C515.878 374.282 513.57 376.149 510.887 376.149ZM514.853 413.017H506.987V380.826H514.853V413.017Z" fill="#2C3C4C"/>
<path d="M525.795 413.01V386.703H521.378V380.818H525.795V379.543C525.795 371.157 531.17 366.039 539.486 366.039C543.711 366.039 547.161 367.314 549.72 369.69L546.778 375.258C544.986 372.958 542.686 372.057 540.061 372.057C535.453 372.057 533.661 374.875 533.661 379.601V380.818H553.053V413.01H545.12V386.703H533.67V413.01H525.803H525.795Z" fill="#2C3C4C"/>
<path d="M582.303 402.773L588.828 404.891C587.103 411.159 581.728 413.785 575.778 413.785C566.503 413.785 560.611 407.766 560.611 397.139C560.611 386.511 566.494 380.051 575.836 380.051C584.603 380.051 589.144 386.202 589.144 394.004C589.144 395.663 588.819 397.397 588.503 398.289H568.153C568.344 404.24 571.161 407.766 575.828 407.766C579.094 407.766 581.394 406.291 582.286 402.773M581.586 393.946C581.653 393.429 581.653 392.796 581.653 392.346C581.653 388.761 579.603 385.752 575.703 385.752C571.478 385.752 568.794 388.828 568.278 393.946H581.586Z" fill="#2C3C4C"/>
<path d="M617.694 406.998C616.219 411.666 612.186 413.784 607.644 413.784C600.477 413.784 594.594 408.149 594.594 397.521C594.594 386.893 599.969 380.05 608.161 380.05C613.027 380.05 616.161 382.359 617.311 385.043V366.805H625.177V413.017H618.519L617.686 406.998H617.694ZM617.311 393.878C617.311 388.31 613.536 386.01 610.269 386.01C605.786 386.01 602.652 389.536 602.652 397.271C602.652 403.989 605.527 407.574 610.136 407.574C613.719 407.574 617.302 404.948 617.302 398.746V393.878H617.311Z" fill="#2C3C4C"/>
<path d="M318.538 298.221H226.523V525.18C240.689 517.553 252.639 511.676 263.239 506.467C310.555 483.219 319.08 479.034 321.238 416.71C321.73 402.464 321.805 385.327 321.805 368.922V301.488C321.805 299.679 320.338 298.221 318.538 298.221Z" fill="#78C6EE"/>
<path d="M134.507 298.221C132.698 298.221 131.24 299.688 131.24 301.488V368.922C131.24 385.268 131.307 402.364 131.807 416.71C133.965 479.034 142.49 483.219 189.806 506.467C200.414 511.676 212.356 517.544 226.523 525.18V298.221H134.507Z" fill="#19B4E9"/>
<path d="M226.523 328.629C189.606 328.629 159.582 358.67 159.582 395.588C159.582 432.506 189.615 462.547 226.523 462.547C263.431 462.547 293.464 432.506 293.464 395.588C293.464 358.67 263.431 328.629 226.523 328.629Z" fill="white"/>
<path d="M247.589 423.053C245.647 423.053 243.814 422.286 242.406 420.902L226.514 405.598L210.506 421.027C209.089 422.344 207.298 423.053 205.431 423.053C201.439 423.053 198.181 419.852 198.181 415.926C198.181 413.934 198.998 412.092 200.481 410.733L216.156 395.579L200.389 380.384C198.981 379.033 198.19 377.208 198.19 375.266C198.19 371.331 201.439 368.139 205.439 368.139C207.331 368.139 209.131 368.856 210.498 370.148L226.539 385.56L242.489 370.206C243.856 368.881 245.664 368.147 247.589 368.147C251.597 368.147 254.856 371.348 254.856 375.274C254.856 377.224 254.072 379.033 252.647 380.367L236.914 395.596L252.689 410.85C254.089 412.208 254.856 414.009 254.856 415.926C254.856 419.86 251.597 423.061 247.589 423.061" fill="#1CB4E9"/>
<path d="M122.032 426.471L81.3573 441.275C79.8573 441.816 78.7073 443.025 78.2323 444.55C77.7573 446.067 78.024 447.726 78.9406 449.027L98.8154 477.017L102.349 513.435C102.499 515.01 103.374 516.419 104.707 517.261C105.532 517.778 106.474 518.053 107.424 518.053C108.015 518.053 108.599 517.953 109.165 517.744L156.432 500.54C132.973 486.286 124.49 471.182 122.024 426.479" fill="#19B4E9"/>
<path d="M374.821 445.918C374.346 444.401 373.188 443.184 371.696 442.642L330.947 427.805C328.338 472.366 319.505 487.003 295.197 501.382L343.871 519.103C344.438 519.312 345.03 519.412 345.613 519.412C346.563 519.412 347.513 519.145 348.338 518.628C349.671 517.786 350.546 516.369 350.696 514.802L354.23 478.384L374.105 450.394C375.03 449.094 375.288 447.443 374.821 445.918Z" fill="#19B4E9"/>
<path d="M247.589 423.053C245.647 423.053 243.814 422.286 242.406 420.902L226.514 405.598L210.506 421.027C209.089 422.344 207.298 423.053 205.431 423.053C201.439 423.053 198.181 419.852 198.181 415.926C198.181 413.934 198.998 412.092 200.481 410.733L216.156 395.579L200.389 380.384C198.981 379.033 198.19 377.208 198.19 375.266C198.19 371.331 201.439 368.139 205.439 368.139C207.331 368.139 209.131 368.856 210.498 370.148L226.539 385.56L242.489 370.206C243.856 368.881 245.664 368.147 247.589 368.147C251.597 368.147 254.856 371.348 254.856 375.274C254.856 377.224 254.072 379.033 252.647 380.367L236.914 395.596L252.689 410.85C254.089 412.208 254.856 414.009 254.856 415.926C254.856 419.86 251.597 423.061 247.589 423.061" fill="#1CB4E9"/>
</g>
<defs>
<clipPath id="clip0_7269_35279">
<rect width="842" height="842" fill="white"/>
</clipPath>
</defs>
</svg>
